<mxfile host="app.diagrams.net" modified="2023-06-09T12:29:25.532Z" agent="Mozilla/5.0 (Windows NT 10.0; Win64; x64) AppleWebKit/537.36 (KHTML, like Gecko) Chrome/114.0.0.0 Safari/537.36" etag="EyzVRefCDqHDi4StrZl7" version="21.3.8" type="device">
  <diagram name="Page-1" id="2YBvvXClWsGukQMizWep">
    <mxGraphModel dx="838" dy="820" grid="1" gridSize="10" guides="1" tooltips="1" connect="1" arrows="1" fold="1" page="1" pageScale="1" pageWidth="850" pageHeight="1100" math="0" shadow="0">
      <root>
        <mxCell id="0" />
        <mxCell id="1" parent="0" />
        <mxCell id="dZeMj2iD2hikStEiDa7G-10" value="Response" style="shape=umlLifeline;perimeter=lifelinePerimeter;whiteSpace=wrap;html=1;container=0;dropTarget=0;collapsible=0;recursiveResize=0;outlineConnect=0;portConstraint=eastwest;newEdgeStyle={&quot;edgeStyle&quot;:&quot;elbowEdgeStyle&quot;,&quot;elbow&quot;:&quot;vertical&quot;,&quot;curved&quot;:0,&quot;rounded&quot;:0};" parent="1" vertex="1">
          <mxGeometry x="1070" y="210" width="100" height="930" as="geometry" />
        </mxCell>
        <mxCell id="dZeMj2iD2hikStEiDa7G-11" value="" style="html=1;points=[];perimeter=orthogonalPerimeter;outlineConnect=0;targetShapes=umlLifeline;portConstraint=eastwest;newEdgeStyle={&quot;edgeStyle&quot;:&quot;elbowEdgeStyle&quot;,&quot;elbow&quot;:&quot;vertical&quot;,&quot;curved&quot;:0,&quot;rounded&quot;:0};" parent="dZeMj2iD2hikStEiDa7G-10" vertex="1">
          <mxGeometry x="45" y="860" width="10" height="20" as="geometry" />
        </mxCell>
        <mxCell id="dZeMj2iD2hikStEiDa7G-1" value="UpdateStudentMark" style="shape=umlLifeline;perimeter=lifelinePerimeter;whiteSpace=wrap;html=1;container=0;dropTarget=0;collapsible=0;recursiveResize=0;outlineConnect=0;portConstraint=eastwest;newEdgeStyle={&quot;edgeStyle&quot;:&quot;elbowEdgeStyle&quot;,&quot;elbow&quot;:&quot;vertical&quot;,&quot;curved&quot;:0,&quot;rounded&quot;:0};" parent="1" vertex="1">
          <mxGeometry x="290" y="210" width="140" height="920" as="geometry" />
        </mxCell>
        <mxCell id="dZeMj2iD2hikStEiDa7G-2" value="doGet(req, resp)" style="html=1;verticalAlign=bottom;startArrow=oval;endArrow=block;startSize=8;edgeStyle=elbowEdgeStyle;elbow=vertical;curved=0;rounded=0;" parent="dZeMj2iD2hikStEiDa7G-1" target="dZeMj2iD2hikStEiDa7G-3" edge="1">
          <mxGeometry relative="1" as="geometry">
            <mxPoint x="-90" y="70" as="sourcePoint" />
            <mxPoint x="55" y="70" as="targetPoint" />
          </mxGeometry>
        </mxCell>
        <mxCell id="dZeMj2iD2hikStEiDa7G-3" value="" style="html=1;points=[];perimeter=orthogonalPerimeter;outlineConnect=0;targetShapes=umlLifeline;portConstraint=eastwest;newEdgeStyle={&quot;edgeStyle&quot;:&quot;elbowEdgeStyle&quot;,&quot;elbow&quot;:&quot;vertical&quot;,&quot;curved&quot;:0,&quot;rounded&quot;:0};" parent="dZeMj2iD2hikStEiDa7G-1" vertex="1">
          <mxGeometry x="65" y="70" width="10" height="810" as="geometry" />
        </mxCell>
        <mxCell id="dZeMj2iD2hikStEiDa7G-4" value="Session" style="shape=umlLifeline;perimeter=lifelinePerimeter;whiteSpace=wrap;html=1;container=0;dropTarget=0;collapsible=0;recursiveResize=0;outlineConnect=0;portConstraint=eastwest;newEdgeStyle={&quot;edgeStyle&quot;:&quot;elbowEdgeStyle&quot;,&quot;elbow&quot;:&quot;vertical&quot;,&quot;curved&quot;:0,&quot;rounded&quot;:0};" parent="1" vertex="1">
          <mxGeometry x="460" y="210" width="100" height="880" as="geometry" />
        </mxCell>
        <mxCell id="dZeMj2iD2hikStEiDa7G-5" value="" style="html=1;points=[];perimeter=orthogonalPerimeter;outlineConnect=0;targetShapes=umlLifeline;portConstraint=eastwest;newEdgeStyle={&quot;edgeStyle&quot;:&quot;elbowEdgeStyle&quot;,&quot;elbow&quot;:&quot;vertical&quot;,&quot;curved&quot;:0,&quot;rounded&quot;:0};" parent="dZeMj2iD2hikStEiDa7G-4" vertex="1">
          <mxGeometry x="45" y="90" width="10" height="30" as="geometry" />
        </mxCell>
        <mxCell id="dZeMj2iD2hikStEiDa7G-6" value="HttpServletRequest" style="shape=umlLifeline;perimeter=lifelinePerimeter;whiteSpace=wrap;html=1;container=0;dropTarget=0;collapsible=0;recursiveResize=0;outlineConnect=0;portConstraint=eastwest;newEdgeStyle={&quot;edgeStyle&quot;:&quot;elbowEdgeStyle&quot;,&quot;elbow&quot;:&quot;vertical&quot;,&quot;curved&quot;:0,&quot;rounded&quot;:0};" parent="1" vertex="1">
          <mxGeometry x="580" y="210" width="120" height="880" as="geometry" />
        </mxCell>
        <mxCell id="dZeMj2iD2hikStEiDa7G-40" value="" style="html=1;points=[];perimeter=orthogonalPerimeter;outlineConnect=0;targetShapes=umlLifeline;portConstraint=eastwest;newEdgeStyle={&quot;edgeStyle&quot;:&quot;elbowEdgeStyle&quot;,&quot;elbow&quot;:&quot;vertical&quot;,&quot;curved&quot;:0,&quot;rounded&quot;:0};" parent="dZeMj2iD2hikStEiDa7G-6" vertex="1">
          <mxGeometry x="55" y="359.47" width="10" height="30" as="geometry" />
        </mxCell>
        <mxCell id="dZeMj2iD2hikStEiDa7G-41" value="(Integer) getParameter(&quot;studentId&quot;) &lt;br&gt;&lt;b&gt;&lt;font color=&quot;#ff8000&quot;&gt;?: [THROW NumberFormatExcpetion &lt;br&gt;| NullPointerExcpetion]&lt;/font&gt;&lt;/b&gt;" style="html=1;verticalAlign=bottom;endArrow=block;edgeStyle=elbowEdgeStyle;elbow=vertical;curved=0;rounded=0;" parent="dZeMj2iD2hikStEiDa7G-6" target="dZeMj2iD2hikStEiDa7G-40" edge="1">
          <mxGeometry relative="1" as="geometry">
            <mxPoint x="-215" y="359.47" as="sourcePoint" />
            <Array as="points">
              <mxPoint x="20" y="359.47" />
              <mxPoint x="-148" y="364.47" />
              <mxPoint x="-168" y="374.47" />
              <mxPoint x="-148" y="364.47" />
            </Array>
            <mxPoint x="-63" y="364.47" as="targetPoint" />
          </mxGeometry>
        </mxCell>
        <mxCell id="dZeMj2iD2hikStEiDa7G-42" value="studentId" style="html=1;verticalAlign=bottom;endArrow=open;dashed=1;endSize=8;edgeStyle=elbowEdgeStyle;elbow=vertical;curved=0;rounded=0;" parent="dZeMj2iD2hikStEiDa7G-6" source="dZeMj2iD2hikStEiDa7G-40" edge="1">
          <mxGeometry x="0.0031" relative="1" as="geometry">
            <mxPoint x="-215" y="389.47" as="targetPoint" />
            <Array as="points">
              <mxPoint y="389.47" />
              <mxPoint x="45" y="394.47" />
              <mxPoint x="-10" y="394.47" />
            </Array>
            <mxPoint x="57" y="394.47" as="sourcePoint" />
            <mxPoint as="offset" />
          </mxGeometry>
        </mxCell>
        <mxCell id="dZeMj2iD2hikStEiDa7G-43" value="" style="html=1;points=[];perimeter=orthogonalPerimeter;outlineConnect=0;targetShapes=umlLifeline;portConstraint=eastwest;newEdgeStyle={&quot;edgeStyle&quot;:&quot;elbowEdgeStyle&quot;,&quot;elbow&quot;:&quot;vertical&quot;,&quot;curved&quot;:0,&quot;rounded&quot;:0};" parent="dZeMj2iD2hikStEiDa7G-6" vertex="1">
          <mxGeometry x="55" y="420" width="10" height="30" as="geometry" />
        </mxCell>
        <mxCell id="dZeMj2iD2hikStEiDa7G-44" value="getParameter(&quot;newMark&quot;)" style="html=1;verticalAlign=bottom;endArrow=block;edgeStyle=elbowEdgeStyle;elbow=vertical;curved=0;rounded=0;" parent="dZeMj2iD2hikStEiDa7G-6" target="dZeMj2iD2hikStEiDa7G-43" edge="1">
          <mxGeometry relative="1" as="geometry">
            <mxPoint x="-215" y="420" as="sourcePoint" />
            <Array as="points">
              <mxPoint x="20" y="420" />
              <mxPoint x="-148" y="425" />
              <mxPoint x="-168" y="435" />
              <mxPoint x="-148" y="425" />
            </Array>
            <mxPoint x="-63" y="425" as="targetPoint" />
          </mxGeometry>
        </mxCell>
        <mxCell id="dZeMj2iD2hikStEiDa7G-45" value="newMark" style="html=1;verticalAlign=bottom;endArrow=open;dashed=1;endSize=8;edgeStyle=elbowEdgeStyle;elbow=vertical;curved=0;rounded=0;" parent="dZeMj2iD2hikStEiDa7G-6" source="dZeMj2iD2hikStEiDa7G-43" edge="1">
          <mxGeometry x="0.0031" relative="1" as="geometry">
            <mxPoint x="-215" y="450" as="targetPoint" />
            <Array as="points">
              <mxPoint y="450" />
              <mxPoint x="45" y="455" />
              <mxPoint x="-10" y="455" />
            </Array>
            <mxPoint x="57" y="455" as="sourcePoint" />
            <mxPoint as="offset" />
          </mxGeometry>
        </mxCell>
        <mxCell id="dZeMj2iD2hikStEiDa7G-7" value="User" style="shape=umlLifeline;perimeter=lifelinePerimeter;whiteSpace=wrap;html=1;container=0;dropTarget=0;collapsible=0;recursiveResize=0;outlineConnect=0;portConstraint=eastwest;newEdgeStyle={&quot;edgeStyle&quot;:&quot;elbowEdgeStyle&quot;,&quot;elbow&quot;:&quot;vertical&quot;,&quot;curved&quot;:0,&quot;rounded&quot;:0};" parent="1" vertex="1">
          <mxGeometry x="710" y="210" width="100" height="880" as="geometry" />
        </mxCell>
        <mxCell id="dZeMj2iD2hikStEiDa7G-8" value="CallEvaluationDAO" style="shape=umlLifeline;perimeter=lifelinePerimeter;whiteSpace=wrap;html=1;container=0;dropTarget=0;collapsible=0;recursiveResize=0;outlineConnect=0;portConstraint=eastwest;newEdgeStyle={&quot;edgeStyle&quot;:&quot;elbowEdgeStyle&quot;,&quot;elbow&quot;:&quot;vertical&quot;,&quot;curved&quot;:0,&quot;rounded&quot;:0};" parent="1" vertex="1">
          <mxGeometry x="820" y="210" width="120" height="880" as="geometry" />
        </mxCell>
        <mxCell id="BxbYwgLEFLH7Cxqu1i08-1" value="" style="html=1;points=[];perimeter=orthogonalPerimeter;outlineConnect=0;targetShapes=umlLifeline;portConstraint=eastwest;newEdgeStyle={&quot;edgeStyle&quot;:&quot;elbowEdgeStyle&quot;,&quot;elbow&quot;:&quot;vertical&quot;,&quot;curved&quot;:0,&quot;rounded&quot;:0};" vertex="1" parent="dZeMj2iD2hikStEiDa7G-8">
          <mxGeometry x="55" y="550" width="10" height="20" as="geometry" />
        </mxCell>
        <mxCell id="BxbYwgLEFLH7Cxqu1i08-2" value="checkIfFormatIsCorrect(newMark) &lt;b&gt;&lt;font color=&quot;#ff8000&quot;&gt;?:[THROW CallEvaluationDAOException]&lt;/font&gt;&lt;/b&gt;" style="html=1;verticalAlign=bottom;endArrow=block;edgeStyle=elbowEdgeStyle;elbow=vertical;curved=0;rounded=0;" edge="1" parent="dZeMj2iD2hikStEiDa7G-8" target="BxbYwgLEFLH7Cxqu1i08-1">
          <mxGeometry x="-0.0007" relative="1" as="geometry">
            <mxPoint x="-455" y="570.0000000000002" as="sourcePoint" />
            <Array as="points">
              <mxPoint x="-30" y="550" />
              <mxPoint x="-30" y="540" />
              <mxPoint x="40" y="570" />
              <mxPoint x="170" y="560" />
              <mxPoint x="385" y="630" />
              <mxPoint x="345" y="640" />
              <mxPoint x="-241" y="821.5" />
              <mxPoint x="-379" y="810.5" />
              <mxPoint x="-399" y="820.5" />
              <mxPoint x="-379" y="810.5" />
            </Array>
            <mxPoint x="430" y="630" as="targetPoint" />
            <mxPoint as="offset" />
          </mxGeometry>
        </mxCell>
        <mxCell id="dZeMj2iD2hikStEiDa7G-9" value="Exception" style="shape=umlLifeline;perimeter=lifelinePerimeter;whiteSpace=wrap;html=1;container=0;dropTarget=0;collapsible=0;recursiveResize=0;outlineConnect=0;portConstraint=eastwest;newEdgeStyle={&quot;edgeStyle&quot;:&quot;elbowEdgeStyle&quot;,&quot;elbow&quot;:&quot;vertical&quot;,&quot;curved&quot;:0,&quot;rounded&quot;:0};" parent="1" vertex="1">
          <mxGeometry x="960" y="210" width="100" height="880" as="geometry" />
        </mxCell>
        <mxCell id="dZeMj2iD2hikStEiDa7G-21" value="" style="html=1;points=[];perimeter=orthogonalPerimeter;outlineConnect=0;targetShapes=umlLifeline;portConstraint=eastwest;newEdgeStyle={&quot;edgeStyle&quot;:&quot;elbowEdgeStyle&quot;,&quot;elbow&quot;:&quot;vertical&quot;,&quot;curved&quot;:0,&quot;rounded&quot;:0};" parent="dZeMj2iD2hikStEiDa7G-9" vertex="1">
          <mxGeometry x="-322.5" y="750" width="10" height="20" as="geometry" />
        </mxCell>
        <mxCell id="dZeMj2iD2hikStEiDa7G-22" value="setAttribute(&quot;errorMessage&quot;, error message)" style="html=1;verticalAlign=bottom;endArrow=block;edgeStyle=elbowEdgeStyle;elbow=vertical;curved=0;rounded=0;" parent="dZeMj2iD2hikStEiDa7G-9" target="dZeMj2iD2hikStEiDa7G-21" edge="1">
          <mxGeometry relative="1" as="geometry">
            <mxPoint x="-592.5" y="750" as="sourcePoint" />
            <Array as="points">
              <mxPoint x="-535.5" y="750" />
              <mxPoint x="-555.5" y="760" />
              <mxPoint x="-535.5" y="750" />
            </Array>
            <mxPoint x="-450.5" y="750" as="targetPoint" />
          </mxGeometry>
        </mxCell>
        <mxCell id="dZeMj2iD2hikStEiDa7G-23" value="" style="html=1;points=[];perimeter=orthogonalPerimeter;outlineConnect=0;targetShapes=umlLifeline;portConstraint=eastwest;newEdgeStyle={&quot;edgeStyle&quot;:&quot;elbowEdgeStyle&quot;,&quot;elbow&quot;:&quot;vertical&quot;,&quot;curved&quot;:0,&quot;rounded&quot;:0};" parent="dZeMj2iD2hikStEiDa7G-9" vertex="1">
          <mxGeometry x="-322.5" y="800" width="10" height="20" as="geometry" />
        </mxCell>
        <mxCell id="dZeMj2iD2hikStEiDa7G-24" value="getRequestDispatcher(errorPath).forward(req, resp)" style="html=1;verticalAlign=bottom;endArrow=block;edgeStyle=elbowEdgeStyle;elbow=vertical;curved=0;rounded=0;" parent="dZeMj2iD2hikStEiDa7G-9" target="dZeMj2iD2hikStEiDa7G-23" edge="1">
          <mxGeometry relative="1" as="geometry">
            <mxPoint x="-592.5" y="800" as="sourcePoint" />
            <Array as="points">
              <mxPoint x="-535.5" y="800" />
              <mxPoint x="-555.5" y="810" />
              <mxPoint x="-535.5" y="800" />
            </Array>
            <mxPoint x="-450.5" y="800" as="targetPoint" />
          </mxGeometry>
        </mxCell>
        <mxCell id="dZeMj2iD2hikStEiDa7G-28" value="" style="html=1;points=[];perimeter=orthogonalPerimeter;outlineConnect=0;targetShapes=umlLifeline;portConstraint=eastwest;newEdgeStyle={&quot;edgeStyle&quot;:&quot;elbowEdgeStyle&quot;,&quot;elbow&quot;:&quot;vertical&quot;,&quot;curved&quot;:0,&quot;rounded&quot;:0};" parent="dZeMj2iD2hikStEiDa7G-9" vertex="1">
          <mxGeometry x="47.5" y="690" width="10" height="30" as="geometry" />
        </mxCell>
        <mxCell id="dZeMj2iD2hikStEiDa7G-35" value="getMessage()" style="html=1;verticalAlign=bottom;endArrow=block;edgeStyle=elbowEdgeStyle;elbow=vertical;curved=0;rounded=0;" parent="dZeMj2iD2hikStEiDa7G-9" target="dZeMj2iD2hikStEiDa7G-28" edge="1">
          <mxGeometry relative="1" as="geometry">
            <mxPoint x="-592.5" y="690" as="sourcePoint" />
            <Array as="points">
              <mxPoint x="-127.5" y="690" />
              <mxPoint x="-157.5" y="700" />
              <mxPoint x="-377.5" y="711" />
              <mxPoint x="-515.5" y="700" />
              <mxPoint x="-535.5" y="710" />
              <mxPoint x="-515.5" y="700" />
            </Array>
            <mxPoint x="-72.5" y="711" as="targetPoint" />
          </mxGeometry>
        </mxCell>
        <mxCell id="dZeMj2iD2hikStEiDa7G-36" value="error message" style="html=1;verticalAlign=bottom;endArrow=open;dashed=1;endSize=8;edgeStyle=elbowEdgeStyle;elbow=vertical;curved=0;rounded=0;" parent="dZeMj2iD2hikStEiDa7G-9" source="dZeMj2iD2hikStEiDa7G-28" edge="1">
          <mxGeometry x="0.0031" relative="1" as="geometry">
            <mxPoint x="-592.5" y="720" as="targetPoint" />
            <Array as="points">
              <mxPoint x="-285.5" y="720" />
              <mxPoint x="-80.5" y="709" />
              <mxPoint x="-135.5" y="709" />
            </Array>
            <mxPoint x="29.5" y="720" as="sourcePoint" />
            <mxPoint as="offset" />
          </mxGeometry>
        </mxCell>
        <mxCell id="dZeMj2iD2hikStEiDa7G-37" value="Catch(SQLException | &lt;b style=&quot;color: rgb(240, 240, 240); font-size: 11px; font-style: normal;&quot;&gt;&lt;font color=&quot;#ff8000&quot;&gt;NumberFormatExcpetion | NullPointerExcpetion | GraduationCallDAOException | CallEvaluationDAOException&lt;/font&gt;&lt;/b&gt;)" style="text;html=1;align=center;verticalAlign=middle;whiteSpace=wrap;rounded=0;fontStyle=3;fontColor=#FF8000;" parent="dZeMj2iD2hikStEiDa7G-9" vertex="1">
          <mxGeometry x="-667.5" y="649.5" width="330" height="20" as="geometry" />
        </mxCell>
        <mxCell id="dZeMj2iD2hikStEiDa7G-39" value="sendRedirect(&quot;/GetSubscriptionToCall?callid=&quot; + callId)" style="html=1;verticalAlign=bottom;endArrow=block;edgeStyle=elbowEdgeStyle;elbow=vertical;curved=0;rounded=0;" parent="dZeMj2iD2hikStEiDa7G-9" target="dZeMj2iD2hikStEiDa7G-11" edge="1">
          <mxGeometry relative="1" as="geometry">
            <mxPoint x="-592.5" y="870" as="sourcePoint" />
            <Array as="points">
              <mxPoint x="-27.5" y="870" />
              <mxPoint x="32.5" y="840" />
              <mxPoint x="-127.5" y="830" />
              <mxPoint x="-157.5" y="840" />
              <mxPoint x="-377.5" y="851" />
              <mxPoint x="-515.5" y="840" />
              <mxPoint x="-535.5" y="850" />
              <mxPoint x="-515.5" y="840" />
            </Array>
            <mxPoint x="47.5" y="830" as="targetPoint" />
          </mxGeometry>
        </mxCell>
        <mxCell id="dZeMj2iD2hikStEiDa7G-12" value="GraduationCallDAO" style="shape=umlLifeline;perimeter=lifelinePerimeter;whiteSpace=wrap;html=1;container=0;dropTarget=0;collapsible=0;recursiveResize=0;outlineConnect=0;portConstraint=eastwest;newEdgeStyle={&quot;edgeStyle&quot;:&quot;elbowEdgeStyle&quot;,&quot;elbow&quot;:&quot;vertical&quot;,&quot;curved&quot;:0,&quot;rounded&quot;:0};" parent="1" vertex="1">
          <mxGeometry x="1180" y="210" width="120" height="880" as="geometry" />
        </mxCell>
        <mxCell id="dZeMj2iD2hikStEiDa7G-29" value="" style="html=1;points=[];perimeter=orthogonalPerimeter;outlineConnect=0;targetShapes=umlLifeline;portConstraint=eastwest;newEdgeStyle={&quot;edgeStyle&quot;:&quot;elbowEdgeStyle&quot;,&quot;elbow&quot;:&quot;vertical&quot;,&quot;curved&quot;:0,&quot;rounded&quot;:0};" parent="dZeMj2iD2hikStEiDa7G-12" vertex="1">
          <mxGeometry x="55" y="480" width="10" height="20" as="geometry" />
        </mxCell>
        <mxCell id="dZeMj2iD2hikStEiDa7G-31" value="checkIfCourseOfCallIsTaughtByLecturer(callId, idUser) &lt;b&gt;&lt;font color=&quot;#ff8000&quot;&gt;?: [THROW GraduationCallDAOException]&lt;/font&gt;&lt;/b&gt;" style="html=1;verticalAlign=bottom;endArrow=block;edgeStyle=elbowEdgeStyle;elbow=vertical;curved=0;rounded=0;" parent="dZeMj2iD2hikStEiDa7G-12" target="dZeMj2iD2hikStEiDa7G-29" edge="1">
          <mxGeometry x="-0.0007" relative="1" as="geometry">
            <mxPoint x="-815" y="480" as="sourcePoint" />
            <Array as="points">
              <mxPoint x="-30" y="480" />
              <mxPoint x="20" y="570" />
              <mxPoint x="-20" y="580" />
              <mxPoint x="-606" y="761.5" />
              <mxPoint x="-744" y="750.5" />
              <mxPoint x="-764" y="760.5" />
              <mxPoint x="-744" y="750.5" />
            </Array>
            <mxPoint x="-301" y="761.5" as="targetPoint" />
            <mxPoint as="offset" />
          </mxGeometry>
        </mxCell>
        <mxCell id="dZeMj2iD2hikStEiDa7G-13" value="getAttribute(&quot;user&quot;)" style="html=1;verticalAlign=bottom;endArrow=block;edgeStyle=elbowEdgeStyle;elbow=vertical;curved=0;rounded=0;" parent="1" source="dZeMj2iD2hikStEiDa7G-3" target="dZeMj2iD2hikStEiDa7G-5" edge="1">
          <mxGeometry relative="1" as="geometry">
            <mxPoint x="358" y="300" as="sourcePoint" />
            <Array as="points">
              <mxPoint x="420" y="300" />
              <mxPoint x="400" y="310" />
              <mxPoint x="420" y="300" />
            </Array>
            <mxPoint x="530" y="300" as="targetPoint" />
          </mxGeometry>
        </mxCell>
        <mxCell id="dZeMj2iD2hikStEiDa7G-14" value="user" style="html=1;verticalAlign=bottom;endArrow=open;dashed=1;endSize=8;edgeStyle=elbowEdgeStyle;elbow=vertical;curved=0;rounded=0;" parent="1" source="dZeMj2iD2hikStEiDa7G-5" target="dZeMj2iD2hikStEiDa7G-3" edge="1">
          <mxGeometry x="0.0031" relative="1" as="geometry">
            <mxPoint x="358" y="330" as="targetPoint" />
            <Array as="points">
              <mxPoint x="493" y="330" />
              <mxPoint x="438" y="330" />
            </Array>
            <mxPoint x="508" y="330" as="sourcePoint" />
            <mxPoint as="offset" />
          </mxGeometry>
        </mxCell>
        <mxCell id="dZeMj2iD2hikStEiDa7G-15" value="alt" style="shape=umlFrame;whiteSpace=wrap;html=1;pointerEvents=0;width=55;height=20;" parent="1" vertex="1">
          <mxGeometry x="280" y="370" width="1150" height="670" as="geometry" />
        </mxCell>
        <mxCell id="dZeMj2iD2hikStEiDa7G-16" value="Try" style="text;html=1;align=center;verticalAlign=middle;whiteSpace=wrap;rounded=0;fontStyle=3;fontColor=#FF8000;" parent="1" vertex="1">
          <mxGeometry x="270" y="380" width="150" height="20" as="geometry" />
        </mxCell>
        <mxCell id="dZeMj2iD2hikStEiDa7G-17" value="getId()" style="html=1;verticalAlign=bottom;endArrow=block;edgeStyle=elbowEdgeStyle;elbow=vertical;curved=0;rounded=0;" parent="1" source="dZeMj2iD2hikStEiDa7G-3" target="dZeMj2iD2hikStEiDa7G-25" edge="1">
          <mxGeometry relative="1" as="geometry">
            <mxPoint x="375" y="410" as="sourcePoint" />
            <Array as="points">
              <mxPoint x="620" y="400" />
              <mxPoint x="432" y="410" />
              <mxPoint x="412" y="420" />
              <mxPoint x="432" y="410" />
            </Array>
            <mxPoint x="517" y="410" as="targetPoint" />
          </mxGeometry>
        </mxCell>
        <mxCell id="dZeMj2iD2hikStEiDa7G-18" value="" style="html=1;points=[];perimeter=orthogonalPerimeter;outlineConnect=0;targetShapes=umlLifeline;portConstraint=eastwest;newEdgeStyle={&quot;edgeStyle&quot;:&quot;elbowEdgeStyle&quot;,&quot;elbow&quot;:&quot;vertical&quot;,&quot;curved&quot;:0,&quot;rounded&quot;:0};" parent="1" vertex="1">
          <mxGeometry x="635" y="490" width="10" height="30" as="geometry" />
        </mxCell>
        <mxCell id="dZeMj2iD2hikStEiDa7G-19" value="(Integer) getParameter(&quot;callid&quot;) &lt;br&gt;&lt;b&gt;&lt;font color=&quot;#ff8000&quot;&gt;?: [THROW NumberFormatExcpetion &lt;br&gt;| NullPointerExcpetion]&lt;/font&gt;&lt;/b&gt;" style="html=1;verticalAlign=bottom;endArrow=block;edgeStyle=elbowEdgeStyle;elbow=vertical;curved=0;rounded=0;" parent="1" source="dZeMj2iD2hikStEiDa7G-3" target="dZeMj2iD2hikStEiDa7G-18" edge="1">
          <mxGeometry relative="1" as="geometry">
            <mxPoint x="368" y="495" as="sourcePoint" />
            <Array as="points">
              <mxPoint x="600" y="490" />
              <mxPoint x="432" y="495" />
              <mxPoint x="412" y="505" />
              <mxPoint x="432" y="495" />
            </Array>
            <mxPoint x="517" y="495" as="targetPoint" />
          </mxGeometry>
        </mxCell>
        <mxCell id="dZeMj2iD2hikStEiDa7G-20" value="callId" style="html=1;verticalAlign=bottom;endArrow=open;dashed=1;endSize=8;edgeStyle=elbowEdgeStyle;elbow=vertical;curved=0;rounded=0;" parent="1" source="dZeMj2iD2hikStEiDa7G-18" target="dZeMj2iD2hikStEiDa7G-3" edge="1">
          <mxGeometry x="0.0031" relative="1" as="geometry">
            <mxPoint x="368" y="525" as="targetPoint" />
            <Array as="points">
              <mxPoint x="580" y="520" />
              <mxPoint x="625" y="525" />
              <mxPoint x="570" y="525" />
            </Array>
            <mxPoint x="637" y="525" as="sourcePoint" />
            <mxPoint as="offset" />
          </mxGeometry>
        </mxCell>
        <mxCell id="dZeMj2iD2hikStEiDa7G-25" value="" style="html=1;points=[];perimeter=orthogonalPerimeter;outlineConnect=0;targetShapes=umlLifeline;portConstraint=eastwest;newEdgeStyle={&quot;edgeStyle&quot;:&quot;elbowEdgeStyle&quot;,&quot;elbow&quot;:&quot;vertical&quot;,&quot;curved&quot;:0,&quot;rounded&quot;:0};" parent="1" vertex="1">
          <mxGeometry x="755" y="400" width="10" height="30" as="geometry" />
        </mxCell>
        <mxCell id="dZeMj2iD2hikStEiDa7G-27" value="idUser" style="html=1;verticalAlign=bottom;endArrow=open;dashed=1;endSize=8;edgeStyle=elbowEdgeStyle;elbow=vertical;curved=0;rounded=0;" parent="1" source="dZeMj2iD2hikStEiDa7G-25" target="dZeMj2iD2hikStEiDa7G-3" edge="1">
          <mxGeometry x="0.0031" relative="1" as="geometry">
            <mxPoint x="375" y="440" as="targetPoint" />
            <Array as="points">
              <mxPoint x="660" y="430" />
              <mxPoint x="690" y="440" />
              <mxPoint x="765" y="440" />
              <mxPoint x="710" y="440" />
            </Array>
            <mxPoint x="780" y="440" as="sourcePoint" />
            <mxPoint as="offset" />
          </mxGeometry>
        </mxCell>
        <mxCell id="dZeMj2iD2hikStEiDa7G-30" value="" style="html=1;points=[];perimeter=orthogonalPerimeter;outlineConnect=0;targetShapes=umlLifeline;portConstraint=eastwest;newEdgeStyle={&quot;edgeStyle&quot;:&quot;elbowEdgeStyle&quot;,&quot;elbow&quot;:&quot;vertical&quot;,&quot;curved&quot;:0,&quot;rounded&quot;:0};" parent="1" vertex="1">
          <mxGeometry x="877.5" y="799.5" width="10" height="20" as="geometry" />
        </mxCell>
        <mxCell id="dZeMj2iD2hikStEiDa7G-32" value="updateMarkByStudentAndCallId(studentId, callId, newMark)" style="html=1;verticalAlign=bottom;endArrow=block;edgeStyle=elbowEdgeStyle;elbow=vertical;curved=0;rounded=0;" parent="1" target="dZeMj2iD2hikStEiDa7G-30" edge="1">
          <mxGeometry x="-0.0007" relative="1" as="geometry">
            <mxPoint x="367.5" y="819.5000000000002" as="sourcePoint" />
            <Array as="points">
              <mxPoint x="792.5" y="799.5" />
              <mxPoint x="792.5" y="789.5" />
              <mxPoint x="862.5" y="819.5" />
              <mxPoint x="992.5" y="809.5" />
              <mxPoint x="1207.5" y="879.5" />
              <mxPoint x="1167.5" y="889.5" />
              <mxPoint x="581.5" y="1071" />
              <mxPoint x="443.5" y="1060" />
              <mxPoint x="423.5" y="1070" />
              <mxPoint x="443.5" y="1060" />
            </Array>
            <mxPoint x="1252.5" y="879.5" as="targetPoint" />
            <mxPoint as="offset" />
          </mxGeometry>
        </mxCell>
        <mxCell id="dZeMj2iD2hikStEiDa7G-33" value="checkIfStudentIsSubscribedToCall(studentId, callId) &lt;b&gt;&lt;font color=&quot;#ff8000&quot;&gt;?: [THROW StudentDAOException]&lt;/font&gt;&lt;/b&gt;" style="html=1;verticalAlign=bottom;endArrow=block;edgeStyle=elbowEdgeStyle;elbow=vertical;curved=0;rounded=0;" parent="1" target="dZeMj2iD2hikStEiDa7G-26" edge="1">
          <mxGeometry relative="1" as="geometry">
            <mxPoint x="365" y="740.0000000000002" as="sourcePoint" />
            <Array as="points">
              <mxPoint x="1290" y="730" />
              <mxPoint x="830" y="740" />
              <mxPoint x="690" y="870" />
              <mxPoint x="442" y="880" />
              <mxPoint x="422" y="890" />
              <mxPoint x="442" y="880" />
            </Array>
            <mxPoint x="777" y="880" as="targetPoint" />
          </mxGeometry>
        </mxCell>
        <mxCell id="dZeMj2iD2hikStEiDa7G-34" value="" style="line;strokeWidth=3;align=left;verticalAlign=middle;spacingTop=-1;spacingLeft=3;spacingRight=3;rotatable=0;labelPosition=right;points=[];portConstraint=eastwest;dashed=1;strokeColor=#80FF00;" parent="1" vertex="1">
          <mxGeometry x="257.5" y="829.5" width="1195" height="8" as="geometry" />
        </mxCell>
        <mxCell id="dZeMj2iD2hikStEiDa7G-46" value="StudentDAO" style="shape=umlLifeline;perimeter=lifelinePerimeter;whiteSpace=wrap;html=1;container=0;dropTarget=0;collapsible=0;recursiveResize=0;outlineConnect=0;portConstraint=eastwest;newEdgeStyle={&quot;edgeStyle&quot;:&quot;elbowEdgeStyle&quot;,&quot;elbow&quot;:&quot;vertical&quot;,&quot;curved&quot;:0,&quot;rounded&quot;:0};" parent="1" vertex="1">
          <mxGeometry x="1310" y="210" width="100" height="750" as="geometry" />
        </mxCell>
        <mxCell id="dZeMj2iD2hikStEiDa7G-26" value="" style="html=1;points=[];perimeter=orthogonalPerimeter;outlineConnect=0;targetShapes=umlLifeline;portConstraint=eastwest;newEdgeStyle={&quot;edgeStyle&quot;:&quot;elbowEdgeStyle&quot;,&quot;elbow&quot;:&quot;vertical&quot;,&quot;curved&quot;:0,&quot;rounded&quot;:0};" parent="dZeMj2iD2hikStEiDa7G-46" vertex="1">
          <mxGeometry x="45" y="520" width="10" height="20" as="geometry" />
        </mxCell>
      </root>
    </mxGraphModel>
  </diagram>
</mxfile>
